<?xml version="1.0" encoding="UTF-8" standalone="no"?>
<!-- Created with Inkscape (http://www.inkscape.org/) -->

<svg
   xmlns:dc="http://purl.org/dc/elements/1.1/"
   xmlns:cc="http://creativecommons.org/ns#"
   xmlns:rdf="http://www.w3.org/1999/02/22-rdf-syntax-ns#"
   xmlns:svg="http://www.w3.org/2000/svg"
   xmlns="http://www.w3.org/2000/svg"
   xmlns:sodipodi="http://sodipodi.sourceforge.net/DTD/sodipodi-0.dtd"
   xmlns:inkscape="http://www.inkscape.org/namespaces/inkscape"
   width="51.17783mm"
   height="18.000891mm"
   viewBox="0 0 181.33865 63.782683"
   id="svg2"
   version="1.1"
   inkscape:version="0.91 r13725"
   sodipodi:docname="article-scraper.svg">
  <defs
     id="defs4" />
  <sodipodi:namedview
     id="base"
     pagecolor="#ffffff"
     bordercolor="#666666"
     borderopacity="1.0"
     inkscape:pageopacity="0.0"
     inkscape:pageshadow="2"
     inkscape:zoom="3.959798"
     inkscape:cx="116.33653"
     inkscape:cy="21.346066"
     inkscape:document-units="px"
     inkscape:current-layer="layer1"
     showgrid="false"
     inkscape:window-width="1920"
     inkscape:window-height="1019"
     inkscape:window-x="0"
     inkscape:window-y="31"
     inkscape:window-maximized="1"
     fit-margin-top="0"
     fit-margin-left="0"
     fit-margin-right="0"
     fit-margin-bottom="0"
     showguides="false" />
  <metadata
     id="metadata7">
    <rdf:RDF>
      <cc:Work
         rdf:about="">
        <dc:format>image/svg+xml</dc:format>
        <dc:type
           rdf:resource="http://purl.org/dc/dcmitype/StillImage" />
        <dc:title></dc:title>
      </cc:Work>
    </rdf:RDF>
  </metadata>
  <g
     inkscape:label="Layer 1"
     inkscape:groupmode="layer"
     id="layer1"
     transform="translate(-54.66564,-217.55766)">
    <g
       style="font-style:normal;font-weight:normal;font-size:40px;line-height:125%;font-family:sans-serif;letter-spacing:0px;word-spacing:0px;writing-mode:tb-rl;fill:#000000;fill-opacity:1;stroke:none;stroke-width:1px;stroke-linecap:butt;stroke-linejoin:miter;stroke-opacity:1"
       id="flowRoot4409" />
    <g
       style="font-style:normal;font-weight:normal;font-size:40px;line-height:125%;font-family:sans-serif;letter-spacing:0px;word-spacing:0px;writing-mode:lr-tb;fill:#000000;fill-opacity:1;stroke:none;stroke-width:1px;stroke-linecap:butt;stroke-linejoin:miter;stroke-opacity:1"
       id="flowRoot4429" />
    <g
       transform="translate(0,-1.4285714)"
       style="font-style:normal;font-weight:normal;font-size:26.03975868px;line-height:125%;font-family:sans-serif;letter-spacing:0px;word-spacing:0px;writing-mode:lr-tb;fill:#000000;fill-opacity:1;stroke:none;stroke-width:1px;stroke-linecap:butt;stroke-linejoin:miter;stroke-opacity:1"
       id="flowRoot4237">
      <path
         d="m 130.62557,246.81191 0,-1.95299 2.21338,0 6.37975,-15.38949 q 0.18227,-0.41664 0.39059,-0.57288 0.20832,-0.18228 0.67704,-0.18228 l 0.54683,0 q 0.57287,0 0.75515,0.18228 0.18228,0.18228 0.46872,0.83327 l 6.27558,15.1291 2.21338,0 0,1.95299 -6.24954,0 0,-1.95299 1.38011,0 -1.40615,-3.41121 -7.91609,0 -1.40615,3.41121 1.38011,0 0,1.95299 -5.70271,0 z m 6.56202,-7.34322 6.24955,0 -2.6821,-6.64014 -0.44268,-1.27594 q -0.41663,1.2499 -1.71862,4.4528 -1.30199,3.17685 -1.40615,3.46328 z"
         style="font-style:normal;font-variant:normal;font-weight:bold;font-stretch:normal;font-family:'CMU Concrete';-inkscape-font-specification:'CMU Concrete Bold'"
         id="path4316" />
      <path
         d="m 152.75042,246.81191 0,-1.95299 1.95298,0 0,-7.21301 q 0,-0.67703 -0.28644,-0.83327 -0.28644,-0.18228 -1.43218,-0.18228 l -0.23436,0 0,-1.97902 4.14032,-0.28644 0,1.17179 0.026,0.91139 q 1.38011,-2.08318 3.43725,-2.08318 l 0.026,0 q 0.88535,0 1.56238,0.54684 0.67704,0.54683 0.67704,1.35406 0,0.57288 -0.3906,0.93743 -0.3906,0.36456 -0.93743,0.36456 -1.04159,0 -1.27595,-1.19783 -1.45823,0.33852 -2.23942,1.51031 -0.75515,1.17179 -0.75515,3.02061 0,0.0781 0,0.28644 0.026,0.20832 0.026,0.28643 l 0,3.38517 2.4217,0 0,1.95299 -6.71826,0 z"
         style="font-style:normal;font-variant:normal;font-weight:bold;font-stretch:normal;font-family:'CMU Concrete';-inkscape-font-specification:'CMU Concrete Bold'"
         id="path4318" />
      <path
         d="m 164.00285,236.47412 0,-1.95298 q 2.78625,-0.18228 2.83833,-5.28607 l 1.97902,0 0,5.28607 4.08825,0 0,1.95298 -4.08825,0 0,6.19746 q 0,1.40615 0.5208,1.87487 0.33852,0.28643 0.75515,0.28643 0.54684,0 0.96347,-0.49475 0.41664,-0.5208 0.41664,-1.79675 0,-0.10415 -0.026,-0.28643 0,-0.20832 0,-0.31248 l 1.97902,0 0,0.65099 q 0,1.22387 -0.46872,2.13526 -0.46871,0.9114 -1.19782,1.35407 -0.72912,0.44268 -1.40615,0.651 -0.651,0.20831 -1.24991,0.20831 -2.00506,0 -2.52586,-2.26546 -0.18227,-0.78119 -0.18227,-2.05714 l 0,-6.14538 -2.39566,0 z"
         style="font-style:normal;font-variant:normal;font-weight:bold;font-stretch:normal;font-family:'CMU Concrete';-inkscape-font-specification:'CMU Concrete Bold'"
         id="path4320" />
      <path
         d="m 176.32657,246.81191 0,-1.95299 1.95298,0 0,-7.21301 q 0,-0.65099 -0.28643,-0.83327 -0.2604,-0.18228 -1.35407,-0.18228 l -0.20832,0 0,-1.97902 4.1924,-0.28644 0,10.49402 1.74467,0 0,1.95299 -6.04123,0 z m 1.01555,-16.35297 q 0,-0.67704 0.49476,-1.19783 0.49475,-0.54684 1.22387,-0.54684 0.70307,0 1.19783,0.49476 0.52079,0.49475 0.52079,1.24991 0,0.72911 -0.52079,1.22387 -0.5208,0.49475 -1.19783,0.49475 -0.75516,0 -1.24991,-0.49475 -0.46872,-0.5208 -0.46872,-1.22387 z"
         style="font-style:normal;font-variant:normal;font-weight:bold;font-stretch:normal;font-family:'CMU Concrete';-inkscape-font-specification:'CMU Concrete Bold'"
         id="path4322" />
      <path
         d="m 184.53479,240.64048 q 0,-0.83327 0.18228,-1.6405 0.18228,-0.83327 0.65099,-1.69259 0.46872,-0.85931 1.19783,-1.5103 0.72912,-0.67704 1.92694,-1.09367 1.19783,-0.41664 2.73418,-0.41664 0.83327,0 1.40615,0.0521 0.59891,0.0521 1.3801,0.23436 0.7812,0.18228 1.19783,0.65099 0.44268,0.46872 0.44268,1.17179 0,0.59892 -0.3906,0.98951 -0.39059,0.3906 -0.93743,0.3906 -0.41664,0 -0.83327,-0.28644 -0.41664,-0.28644 -0.49476,-1.04159 l -0.026,0 q -1.04159,-0.0521 -1.56238,-0.0521 -4.3226,0 -4.3226,4.21844 0,1.19783 0.44267,2.08318 0.44268,0.88535 1.14575,1.32803 0.72912,0.44268 1.45823,0.65099 0.75515,0.18228 1.56238,0.18228 0.9114,0 1.43219,-0.44267 0.5208,-0.44268 0.75515,-0.98951 0.23436,-0.54684 0.31248,-0.59892 0.1302,-0.0781 0.85931,-0.0781 l 0.33852,0 q 0.57288,0 0.57288,0.33852 0,0.1302 -0.1302,0.52079 -0.1302,0.3906 -0.49476,0.98952 -0.36456,0.57287 -0.88535,1.09367 -0.5208,0.49475 -1.45823,0.88535 -0.91139,0.36455 -2.0311,0.36455 -2.86437,0 -4.66112,-1.69258 -1.7707,-1.71862 -1.7707,-4.60904 z"
         style="font-style:normal;font-variant:normal;font-weight:bold;font-stretch:normal;font-family:'CMU Concrete';-inkscape-font-specification:'CMU Concrete Bold'"
         id="path4324" />
      <path
         d="m 198.09418,246.81191 0,-1.95299 1.95299,0 0,-12.9678 q -0.026,-0.57287 -0.33852,-0.72911 -0.28644,-0.18228 -1.32803,-0.18228 l -0.28644,0 0,-1.97902 4.29656,-0.28644 0,16.14465 1.95299,0 0,1.95299 -6.24955,0 z"
         style="font-style:normal;font-variant:normal;font-weight:bold;font-stretch:normal;font-family:'CMU Concrete';-inkscape-font-specification:'CMU Concrete Bold'"
         id="path4326" />
      <path
         d="m 206.12013,240.5884 q 0,-2.81229 1.71862,-4.53092 1.71863,-1.74466 4.53092,-1.74466 1.53635,0 2.65606,0.5208 1.11971,0.52079 1.69258,1.40614 0.57288,0.85932 0.80723,1.79675 0.2604,0.93743 0.2604,1.97902 0,0.44267 -0.18228,0.59891 -0.15624,0.1302 -0.54683,0.15624 l -8.3848,0 q 0.026,0.33852 0.0521,0.54684 0.026,0.18227 0.13019,0.67703 0.1302,0.46872 0.31248,0.78119 0.18228,0.31248 0.54684,0.75516 0.36455,0.41663 0.83327,0.67703 0.46871,0.2604 1.22387,0.44268 0.75515,0.18227 1.66654,0.18227 0.88535,0 1.43219,-0.36455 0.54683,-0.3906 0.80723,-0.91139 0.28644,-0.5208 0.33852,-0.54684 0.15624,-0.1302 0.54683,-0.1302 l 0.23436,0 q 0.93743,0 0.93743,0.49476 0,0.33851 -0.31248,0.88535 -0.31247,0.54683 -0.88535,1.17179 -0.54683,0.62495 -1.58842,1.06763 -1.01555,0.44267 -2.21338,0.44267 -2.86438,0 -4.73924,-1.69258 -1.87486,-1.71862 -1.87486,-4.66112 z m 2.68209,-1.48426 6.79638,0 q -0.46871,-2.83834 -3.22893,-2.83834 -2.96853,0 -3.56745,2.83834 z"
         style="font-style:normal;font-variant:normal;font-weight:bold;font-stretch:normal;font-family:'CMU Concrete';-inkscape-font-specification:'CMU Concrete Bold'"
         id="path4328" />
    </g>
    <g
       style="font-style:normal;font-weight:normal;font-size:26.03975868px;line-height:125%;font-family:sans-serif;letter-spacing:0px;word-spacing:0px;writing-mode:lr-tb;fill:#000000;fill-opacity:1;stroke:none;stroke-width:1px;stroke-linecap:butt;stroke-linejoin:miter;stroke-opacity:1"
       id="text4216">
      <path
         d="m 130.62558,268.60418 q 0,-0.0781 1.32803,-5.39023 0.0781,-0.33852 0.20831,-0.41664 0.1302,-0.0781 0.41664,-0.0781 l 0.0781,0 q 0.0521,0 0.1302,0 0.10416,-0.026 0.15624,-0.026 0.57287,0 0.57287,0.33852 0,0.0521 -0.0781,0.44268 -0.0521,0.39059 -0.0521,0.78119 0,1.69258 1.17179,2.4217 1.17179,0.70307 2.70814,0.70307 2.10922,0 3.28101,-1.38011 1.17179,-1.40614 1.17179,-2.86437 0,-1.48427 -1.24991,-2.18734 -0.31248,-0.15624 -2.18734,-0.65099 -1.84883,-0.49476 -2.18734,-0.62496 -0.85931,-0.33852 -1.58843,-1.17179 -0.70307,-0.85931 -0.70307,-2.21338 0,-0.91139 0.41663,-1.9009 0.41664,-0.98951 1.17179,-1.84882 0.75516,-0.88535 2.00507,-1.43219 1.2499,-0.57287 2.73417,-0.57287 2.65606,0 3.82784,1.92694 l 0.026,0 q 1.17179,-1.77071 1.30199,-1.84882 0.18228,-0.10416 0.36456,-0.026 0.20832,0.0521 0.20832,0.28643 0,0.0521 -1.32803,5.33815 -0.10416,0.36456 -0.23436,0.46872 -0.10416,0.0781 -0.44267,0.0781 l -0.3906,0 q -0.5208,0 -0.5208,-0.36456 0,-0.0781 0.026,-0.41663 0.0521,-0.36456 0.0521,-0.651 0,-1.53634 -0.78119,-2.4217 -0.78119,-0.91139 -2.36962,-0.91139 -1.95298,0 -3.09873,1.22387 -1.14575,1.22387 -1.14575,2.5519 0,0.72911 0.31248,1.22387 0.31248,0.49475 0.91139,0.78119 0.62495,0.2604 1.22387,0.44268 0.62495,0.15623 1.5103,0.36455 0.9114,0.20832 1.48427,0.41664 1.09367,0.41663 1.7707,1.38011 0.67704,0.93743 0.67704,2.26545 0,0.93744 -0.41664,2.00507 -0.39059,1.04159 -1.14575,2.0311 -0.72911,0.96347 -2.05714,1.61446 -1.30199,0.62496 -2.89041,0.62496 -3.12477,0 -4.50488,-1.90091 l -0.026,0 q -0.83327,1.32803 -1.06763,1.61447 -0.23436,0.28644 -0.44268,0.28644 -0.33851,0 -0.33851,-0.31248 z"
         style="font-style:italic;font-variant:normal;font-weight:500;font-stretch:normal;font-family:'CMU Concrete';-inkscape-font-specification:'CMU Concrete Medium Italic'"
         id="path4331" />
      <path
         d="m 147.35531,264.67218 q 0,-1.90091 0.83327,-3.74973 0.83327,-1.84882 2.47378,-3.09873 1.6405,-1.27595 3.69764,-1.27595 1.32803,0 2.18734,0.62495 0.85932,0.62496 0.85932,1.64051 0,0.75515 -0.41664,1.14575 -0.3906,0.3906 -0.85931,0.3906 -0.3906,0 -0.62496,-0.23436 -0.20831,-0.23436 -0.20831,-0.57288 0,-0.46871 0.41663,-0.91139 l 0,-0.026 q -0.59891,-0.52079 -1.61446,-0.52079 -1.35407,0 -2.39566,0.80723 -1.01555,0.78119 -1.51031,1.95298 -0.49475,1.14575 -0.72911,2.13526 -0.23436,0.98951 -0.23436,1.69259 0,2.57793 2.5519,2.57793 1.35407,0 2.39566,-0.46871 1.06763,-0.46872 1.58842,-0.93744 0.54684,-0.46871 0.62496,-0.46871 0.23435,0 0.52079,0.33852 0.31248,0.33851 0.31248,0.46871 0,0.33852 -0.72912,0.93743 -0.70307,0.59892 -2.10922,1.14575 -1.3801,0.5208 -2.86437,0.5208 -2.00506,0 -3.09873,-1.11971 -1.06763,-1.11971 -1.06763,-2.99457 z"
         style="font-style:italic;font-variant:normal;font-weight:500;font-stretch:normal;font-family:'CMU Concrete';-inkscape-font-specification:'CMU Concrete Medium Italic'"
         id="path4333" />
      <path
         d="m 159.05082,260.55789 q 0,-0.0781 0.0781,-0.44267 0.10416,-0.3906 0.36456,-0.98951 0.2604,-0.62496 0.59891,-1.19783 0.33852,-0.57288 0.9114,-0.96347 0.57287,-0.41664 1.2499,-0.41664 0.70308,0 1.35407,0.41664 0.651,0.39059 0.91139,1.30198 0.46872,-0.49475 0.83328,-0.78119 0.36455,-0.31248 1.06763,-0.62495 0.72911,-0.31248 1.53634,-0.31248 1.14575,0 1.84882,0.65099 0.72912,0.62496 0.72912,1.66655 0,0.80723 -0.3906,1.19783 -0.3906,0.39059 -0.88535,0.39059 -0.36456,0 -0.59892,-0.20831 -0.23435,-0.23436 -0.23435,-0.57288 0,-0.49475 0.46871,-0.96347 -0.49475,-0.62495 -1.19783,-0.62495 -0.78119,0 -1.48426,0.54683 -0.70308,0.54684 -1.22387,1.45823 -0.49476,0.91139 -0.80723,1.66654 -0.28644,0.75516 -0.54684,1.56239 -0.2604,0.88535 -0.49475,1.9009 -0.23436,0.98951 -0.36456,1.56239 -0.10416,0.54683 -0.28644,1.06763 -0.18228,0.49475 -0.44267,0.70307 -0.23436,0.20832 -0.62496,0.20832 -0.70307,0 -0.70307,-0.70308 0,-0.31247 0.15624,-0.83327 l 1.82278,-7.34321 q 0.1302,-0.57288 0.1302,-0.72911 0,-0.5208 -0.28644,-0.7812 -0.2604,-0.26039 -0.54683,-0.26039 -0.44268,0 -0.75516,0.59891 -0.31247,0.57288 -0.52079,1.27595 -0.18228,0.67703 -0.23436,0.75515 -0.1302,0.15624 -0.46872,0.15624 l -0.41663,0 q -0.54684,0 -0.54684,-0.33852 z"
         style="font-style:italic;font-variant:normal;font-weight:500;font-stretch:normal;font-family:'CMU Concrete';-inkscape-font-specification:'CMU Concrete Medium Italic'"
         id="path4335" />
      <path
         d="m 170.49489,264.88049 q 0,-1.7707 0.70307,-3.64556 0.72912,-1.87487 2.23942,-3.28101 1.51031,-1.40615 3.38517,-1.40615 1.51031,0 2.52586,1.17179 0.31247,-0.75515 0.98951,-0.75515 0.31248,0 0.52079,0.20831 0.20832,0.18228 0.20832,0.49476 0,0.23436 -0.18228,0.96347 l -1.69258,6.69222 q -0.1302,0.44268 -0.1302,0.85931 0,0.5208 0.2604,0.78119 0.28644,0.2604 0.57287,0.2604 0.44268,0 0.75516,-0.57287 0.31247,-0.57288 0.49475,-1.27595 0.18228,-0.70307 0.23436,-0.78119 0.10416,-0.15624 0.67703,-0.15624 0.46872,0 0.59892,0.0781 0.15624,0.0521 0.15624,0.23435 0,0.0781 -0.10416,0.46872 -0.0781,0.36456 -0.33852,0.98951 -0.23436,0.59892 -0.57288,1.17179 -0.33851,0.57287 -0.93743,0.98951 -0.57287,0.3906 -1.2499,0.3906 -1.64051,0 -2.21338,-1.56239 -1.66655,1.56239 -3.51537,1.56239 -1.32803,0 -2.36962,-0.88535 -1.01555,-0.9114 -1.01555,-2.99458 z m 1.84882,0.10416 q 0,1.27595 0.54684,1.77071 0.54683,0.49475 1.27595,0.49475 1.04159,0 2.0311,-0.88535 1.01555,-0.91139 1.5103,-2.21338 0.80724,-2.6821 0.80724,-3.54141 0,-1.01555 -0.49476,-1.7707 -0.46872,-0.75515 -1.45823,-0.75515 -0.93743,0 -1.71862,0.62495 -0.78119,0.62495 -1.22387,1.51031 -0.44268,0.85931 -0.75515,1.87486 -0.31248,1.01555 -0.41664,1.7707 -0.10416,0.72912 -0.10416,1.11971 z"
         style="font-style:italic;font-variant:normal;font-weight:500;font-stretch:normal;font-family:'CMU Concrete';-inkscape-font-specification:'CMU Concrete Medium Italic'"
         id="path4337" />
      <path
         d="m 182.4154,273.23926 q 0,-0.18228 0.10416,-0.54684 0.10416,-0.33852 0.28644,-0.44268 0.10416,-0.0781 0.54684,-0.0781 l 0.93743,0 q 0.0521,-0.23436 0.15624,-0.67704 0.13019,-0.44267 0.18227,-0.67703 l 2.76022,-11.0669 q 0.0781,-0.31248 0.0781,-0.62495 0,-0.5208 -0.28644,-0.75516 -0.28644,-0.26039 -0.54683,-0.26039 -0.44268,0 -0.75516,0.57287 -0.31247,0.57288 -0.49475,1.27595 -0.18228,0.70307 -0.23436,0.78119 -0.10416,0.15624 -0.67703,0.15624 -0.46872,0 -0.62496,-0.0521 -0.1302,-0.0781 -0.1302,-0.2604 0,-0.0521 0.0781,-0.44267 0.10416,-0.3906 0.33852,-0.98951 0.2604,-0.62496 0.59891,-1.19783 0.33852,-0.57288 0.91139,-0.98951 0.59892,-0.41664 1.27595,-0.41664 0.651,0 1.27595,0.36456 0.62496,0.36455 0.93743,1.22387 1.64051,-1.58843 3.51537,-1.58843 1.30199,0 2.34358,0.91139 1.04159,0.91139 1.04159,2.94249 0,1.77071 -0.72911,3.67161 -0.70308,1.87486 -2.21338,3.30705 -1.48427,1.40615 -3.38517,1.40615 -1.58843,0 -2.49982,-1.17179 l -1.14575,4.55696 1.30199,0 q 0.72911,0 0.72911,0.46871 0,0.80723 -0.44267,0.98951 -0.1302,0.0521 -0.3906,0.0521 l -4.21844,0 q -0.62496,0 -0.62496,-0.44267 z m 5.62459,-8.41085 q 0,1.09367 0.5208,1.77071 0.54683,0.65099 1.40614,0.65099 1.11971,0 1.97903,-0.83327 0.88535,-0.85931 1.32802,-2.05714 0.46872,-1.22387 0.67704,-2.26546 0.23436,-1.06763 0.23436,-1.7707 0,-1.27595 -0.54684,-1.74467 -0.54683,-0.49475 -1.27595,-0.49475 -1.79674,0 -3.09873,2.21338 -0.49475,0.85931 -0.85931,2.42169 -0.36456,1.53635 -0.36456,2.10922 z"
         style="font-style:italic;font-variant:normal;font-weight:500;font-stretch:normal;font-family:'CMU Concrete';-inkscape-font-specification:'CMU Concrete Medium Italic'"
         id="path4339" />
      <path
         d="m 197.88668,264.3597 q 0,-3.22893 1.9009,-5.52043 1.92695,-2.2915 4.94756,-2.2915 1.35407,0 2.21338,0.70307 0.88535,0.67704 0.88535,1.79675 0,0.36455 -0.10416,0.75515 -0.10416,0.3906 -0.44267,0.96347 -0.33852,0.54684 -1.17179,1.01555 -0.80724,0.46872 -2.00507,0.70308 -1.3801,0.26039 -4.16636,0.26039 -0.20831,1.14575 -0.20831,1.71863 0,1.32802 0.62495,2.05714 0.62495,0.72911 1.84882,0.72911 1.04159,0 1.95298,-0.28644 0.9114,-0.31247 1.38011,-0.65099 0.46872,-0.33852 0.83327,-0.62495 0.36456,-0.31248 0.46872,-0.31248 0.18228,0 0.46872,0.33852 0.31247,0.33851 0.31247,0.52079 0,0.15624 -0.2604,0.44268 -0.23435,0.28643 -0.75515,0.65099 -0.52079,0.36456 -1.19783,0.70307 -0.65099,0.31248 -1.58842,0.54684 -0.91139,0.20832 -1.9009,0.20832 -0.72912,0 -1.40615,-0.20832 -0.651,-0.20832 -1.27595,-0.65099 -0.62495,-0.46872 -0.98951,-1.38011 -0.36456,-0.93743 -0.36456,-2.18734 z m 2.44774,-3.15081 0.85931,0 q 5.02568,0 5.02568,-1.92694 0,-0.44268 -0.41664,-0.80724 -0.41664,-0.39059 -1.32803,-0.39059 -2.99457,0 -4.14032,3.12477 z"
         style="font-style:italic;font-variant:normal;font-weight:500;font-stretch:normal;font-family:'CMU Concrete';-inkscape-font-specification:'CMU Concrete Medium Italic'"
         id="path4341" />
      <path
         d="m 209.452,260.55789 q 0,-0.0781 0.0781,-0.44267 0.10415,-0.3906 0.36455,-0.98951 0.2604,-0.62496 0.59892,-1.19783 0.33851,-0.57288 0.91139,-0.96347 0.57287,-0.41664 1.24991,-0.41664 0.70307,0 1.35406,0.41664 0.651,0.39059 0.9114,1.30198 0.46871,-0.49475 0.83327,-0.78119 0.36455,-0.31248 1.06763,-0.62495 0.72911,-0.31248 1.53634,-0.31248 1.14575,0 1.84883,0.65099 0.72911,0.62496 0.72911,1.66655 0,0.80723 -0.3906,1.19783 -0.39059,0.39059 -0.88535,0.39059 -0.36455,0 -0.59891,-0.20831 -0.23436,-0.23436 -0.23436,-0.57288 0,-0.49475 0.46872,-0.96347 -0.49476,-0.62495 -1.19783,-0.62495 -0.7812,0 -1.48427,0.54683 -0.70307,0.54684 -1.22387,1.45823 -0.49475,0.91139 -0.80723,1.66654 -0.28644,0.75516 -0.54684,1.56239 -0.26039,0.88535 -0.49475,1.9009 -0.23436,0.98951 -0.36456,1.56239 -0.10416,0.54683 -0.28644,1.06763 -0.18227,0.49475 -0.44267,0.70307 -0.23436,0.20832 -0.62496,0.20832 -0.70307,0 -0.70307,-0.70308 0,-0.31247 0.15624,-0.83327 l 1.82278,-7.34321 q 0.1302,-0.57288 0.1302,-0.72911 0,-0.5208 -0.28644,-0.7812 -0.26039,-0.26039 -0.54683,-0.26039 -0.44268,0 -0.75515,0.59891 -0.31248,0.57288 -0.5208,1.27595 -0.18228,0.67703 -0.23436,0.75515 -0.1302,0.15624 -0.46871,0.15624 l -0.41664,0 q -0.54683,0 -0.54683,-0.33852 z"
         style="font-style:italic;font-variant:normal;font-weight:500;font-stretch:normal;font-family:'CMU Concrete';-inkscape-font-specification:'CMU Concrete Medium Italic'"
         id="path4343" />
    </g>
    <g
       id="g4261"
       transform="matrix(0.08663178,0,0,0.08663178,70.422799,226.38328)">
      <g
         id="g4221">
        <path
           id="path4223"
           d="m 534.644,1.79 -390.737,0 c -4.72,0 -8.54,3.828 -8.54,8.544 l 0,34.132 -63.362,0 c -2.458,0 -4.807,1.064 -6.427,2.919 -1.62,1.861 -2.353,4.32 -2.036,6.763 l 3.319,24.521 -58.32,0 c -2.679,0 -5.22,1.264 -6.835,3.411 -1.613,2.146 -2.117,4.925 -1.362,7.519 l 129.987,445.633 c 1.086,3.738 4.492,6.162 8.209,6.162 l 396.1,0 c 4.715,0 8.545,-3.81 8.545,-8.548 l 0,-522.507 c 0,-4.721 -3.831,-8.549 -8.541,-8.549 z m -399.276,59.765 0,395.79 -53.574,-395.79 53.574,0 z M 69.17,95.752 111.816,410.747 19.928,95.752 Z m 456.931,428.554 -373.654,0 0,-505.425 373.662,0 0,505.425 z m -224.199,-437.95 -135.823,0 0,-38.445 135.818,0 0.005,38.445 z m 211.418,0 -135.821,0 0,-38.445 135.816,0 0.005,38.445 z m -20.138,189.083 -115.683,0 0,-129.851 115.679,0 0.004,129.851 z m -170.994,-110.767 -142.223,0 0,-14.243 142.223,0 z m -142.223,40.424 142.223,0 0,14.244 -142.223,0 z m 1.601,55.91 142.225,0 0,14.242 -142.225,0 z m -1.601,56.321 313.217,0 0,14.237 -313.217,0 z m 0,56.231 313.217,0 0,14.237 -313.217,0 z m 0,55.52 313.217,0 0,14.247 -313.217,0 z"
           inkscape:connector-curvature="0"
           style="fill:#333333"
           sodipodi:nodetypes="ssscscccscccsssssccccccccccccccccccccccccccccccccccccccccccccccccccccccccccccccc" />
      </g>
      <g
         id="g4225" />
      <g
         id="g4227" />
      <g
         id="g4229" />
      <g
         id="g4231" />
      <g
         id="g4233" />
      <g
         id="g4235" />
      <g
         id="g4237" />
      <g
         id="g4239" />
      <g
         id="g4241" />
      <g
         id="g4243" />
      <g
         id="g4245" />
      <g
         id="g4247" />
      <g
         id="g4249" />
      <g
         id="g4251" />
      <g
         id="g4253" />
    </g>
  </g>
</svg>
