<?xml version="1.0" encoding="UTF-8" standalone="no"?>
<svg
   xmlns:dc="http://purl.org/dc/elements/1.1/"
   xmlns:cc="http://creativecommons.org/ns#"
   xmlns:rdf="http://www.w3.org/1999/02/22-rdf-syntax-ns#"
   xmlns:svg="http://www.w3.org/2000/svg"
   xmlns="http://www.w3.org/2000/svg"
   xmlns:sodipodi="http://sodipodi.sourceforge.net/DTD/sodipodi-0.dtd"
   xmlns:inkscape="http://www.inkscape.org/namespaces/inkscape"
   width="512px"
   version="1.1"
   height="512px"
   viewBox="0 0 64 64"
   enable-background="new 0 0 64 64"
   id="svg2"
   inkscape:version="0.91 r13725"
   sodipodi:docname="drag.svg">
  <metadata
     id="metadata16">
    <rdf:RDF>
      <cc:Work
         rdf:about="">
        <dc:format>image/svg+xml</dc:format>
        <dc:type
           rdf:resource="http://purl.org/dc/dcmitype/StillImage" />
        <dc:title />
      </cc:Work>
    </rdf:RDF>
  </metadata>
  <defs
     id="defs14" />
  <sodipodi:namedview
     pagecolor="#ffffff"
     bordercolor="#666666"
     borderopacity="1"
     objecttolerance="10"
     gridtolerance="10"
     guidetolerance="10"
     inkscape:pageopacity="0"
     inkscape:pageshadow="2"
     inkscape:window-width="1920"
     inkscape:window-height="1059"
     id="namedview12"
     showgrid="false"
     inkscape:zoom="0.65186406"
     inkscape:cx="255.9228"
     inkscape:cy="111.90507"
     inkscape:window-x="0"
     inkscape:window-y="21"
     inkscape:window-maximized="1"
     inkscape:current-layer="g6" />
  <g
     id="g4"
     style="fill:#1a1a1a"
     transform="matrix(-1,0,0,1,64,0)">
    <g
       id="g6"
       style="fill:#1a1a1a">
      <g
         id="g4146"
         transform="matrix(0,0.24814021,0.24814021,0,28.538952,14.798904)"
         style="fill:#000000" />
      <g
         id="g4146-3-7"
         transform="matrix(0.18266173,0,0,-0.16962617,20.051424,31.141964)"
         style="fill:#000000">
        <path
           id="path4148-6-5"
           d="m 126.12011,44.522237 c -1.78982,-1.789815 -4.69827,-1.789815 -6.48808,0 L 61.282253,79.223 5.4194599,44.522237 c -2.1501212,-1.33561 -4.69826395,-1.789815 -6.4880789,0 -1.789815,1.789815 -1.789815,4.698264 0,6.488079 l 60.294391,60.294394 c 0.894908,0.8949 2.013542,1.34236 3.24404,1.34236 1.118634,0 2.349132,-0.44746 3.244039,-1.34236 L 126.00824,51.010316 c 1.90168,-1.789815 1.90168,-4.698264 0.11187,-6.488079 z"
           inkscape:connector-curvature="0"
           style="fill:#000000"
           sodipodi:nodetypes="sccsssssscs" />
      </g>
      <g
         id="g4146-3-7-6"
         transform="matrix(-0.20433169,0,0,0.18974966,44.94817,31.121725)"
         style="fill:#000000">
        <path
           id="path4148-6-5-2"
           d="m 122.81227,34.6 c -1.6,-1.6 -4.2,-1.6 -5.8,0 L 64.850657,65.620649 14.912272,34.6 c -1.922095,-1.193964 -4.2,-1.6 -5.7999997,0 -1.6,1.6 -1.6,4.2 0,5.8 L 63.012272,94.3 c 0.8,0.8 1.8,1.2 2.9,1.2 1,0 2.1,-0.4 2.9,-1.2 L 122.71227,40.4 c 1.7,-1.6 1.7,-4.2 0.1,-5.8 z"
           inkscape:connector-curvature="0"
           style="fill:#000000"
           sodipodi:nodetypes="sccsssssscs" />
      </g>
    </g>
  </g>
</svg>
