<?xml version="1.0" encoding="UTF-8" standalone="no"?>
<svg
   xmlns:dc="http://purl.org/dc/elements/1.1/"
   xmlns:cc="http://creativecommons.org/ns#"
   xmlns:rdf="http://www.w3.org/1999/02/22-rdf-syntax-ns#"
   xmlns:svg="http://www.w3.org/2000/svg"
   xmlns="http://www.w3.org/2000/svg"
   xmlns:sodipodi="http://sodipodi.sourceforge.net/DTD/sodipodi-0.dtd"
   xmlns:inkscape="http://www.inkscape.org/namespaces/inkscape"
   width="512px"
   version="1.1"
   height="512px"
   viewBox="0 0 64 64"
   enable-background="new 0 0 64 64"
   id="svg2"
   inkscape:version="0.91 r13725"
   sodipodi:docname="move.svg">
  <metadata
     id="metadata16">
    <rdf:RDF>
      <cc:Work
         rdf:about="">
        <dc:format>image/svg+xml</dc:format>
        <dc:type
           rdf:resource="http://purl.org/dc/dcmitype/StillImage" />
      </cc:Work>
    </rdf:RDF>
  </metadata>
  <defs
     id="defs14" />
  <sodipodi:namedview
     pagecolor="#ffffff"
     bordercolor="#666666"
     borderopacity="1"
     objecttolerance="10"
     gridtolerance="10"
     guidetolerance="10"
     inkscape:pageopacity="0"
     inkscape:pageshadow="2"
     inkscape:window-width="1920"
     inkscape:window-height="1059"
     id="namedview12"
     showgrid="false"
     inkscape:zoom="0.921875"
     inkscape:cx="355.61825"
     inkscape:cy="182.3773"
     inkscape:window-x="0"
     inkscape:window-y="21"
     inkscape:window-maximized="1"
     inkscape:current-layer="g6" />
  <g
     id="g4"
     style="fill:#1a1a1a"
     transform="matrix(-1,0,0,1,64,0)">
    <g
       id="g6"
       style="fill:#1a1a1a">
      <g
         id="g4146"
         transform="matrix(0,0.36540864,0.36540864,0,27.075478,7.2287897)"
         style="fill:#000000" />
      <g
         id="g4146-3-7"
         transform="matrix(0.26898572,0,0,-0.24978969,14.576834,24.023751)"
         style="fill:#000000">
        <path
           id="path4148-6-5"
           d="m 119.37502,34.6 c -1.6,-1.6 -4.2,-1.6 -5.8,0 L 61.413404,65.620649 11.475019,34.6 c -1.9220947,-1.193964 -4.1999997,-1.6 -5.7999997,0 -1.6,1.6 -1.6,4.2 0,5.8 L 59.575019,94.3 c 0.8,0.8 1.8,1.2 2.9,1.2 1,0 2.1,-0.4 2.9,-1.2 L 119.27502,40.4 c 1.7,-1.6 1.7,-4.2 0.1,-5.8 z"
           inkscape:connector-curvature="0"
           style="fill:#000000"
           sodipodi:nodetypes="sccsssssscs" />
      </g>
      <g
         id="g4146-3-7-3"
         transform="matrix(0,0.26898573,0.24978969,0,39.812375,14.417784)"
         style="fill:#000000">
        <path
           id="path4148-6-5-5"
           d="m 121.3,34.6 c -1.6,-1.6 -4.2,-1.6 -5.8,0 L 63.338385,65.620649 13.4,34.6 C 11.477905,33.406036 9.2,33 7.6,34.6 6,36.2 6,38.8 7.6,40.4 l 53.9,53.9 c 0.8,0.8 1.8,1.2 2.9,1.2 1,0 2.1,-0.4 2.9,-1.2 l 53.9,-53.9 c 1.7,-1.6 1.7,-4.2 0.1,-5.8 z"
           inkscape:connector-curvature="0"
           style="fill:#000000"
           sodipodi:nodetypes="sccsssssscs" />
      </g>
      <g
         id="g4146-3-7-6"
         transform="matrix(-0.26898573,0,0,0.24978969,49.134796,39.955367)"
         style="fill:#000000">
        <path
           id="path4148-6-5-2"
           d="m 122.81227,34.6 c -1.6,-1.6 -4.2,-1.6 -5.8,0 L 64.850657,65.620649 14.912272,34.6 c -1.922095,-1.193964 -4.2,-1.6 -5.7999997,0 -1.6,1.6 -1.6,4.2 0,5.8 L 63.012272,94.3 c 0.8,0.8 1.8,1.2 2.9,1.2 1,0 2.1,-0.4 2.9,-1.2 L 122.71227,40.4 c 1.7,-1.6 1.7,-4.2 0.1,-5.8 z"
           inkscape:connector-curvature="0"
           style="fill:#000000"
           sodipodi:nodetypes="sccsssssscs" />
      </g>
      <g
         id="g4146-3-7-3-9"
         transform="matrix(0,-0.26898573,-0.24978969,0,24.044633,50.051971)"
         style="fill:#000000">
        <path
           id="path4148-6-5-5-1"
           d="m 124.88834,34.6 c -1.6,-1.6 -4.2,-1.6 -5.8,0 L 66.926726,65.620649 16.988341,34.6 c -1.922095,-1.193964 -4.2,-1.6 -5.8,0 -1.5999998,1.6 -1.5999998,4.2 0,5.8 l 53.9,53.9 c 0.8,0.8 1.8,1.2 2.9,1.2 1,0 2.1,-0.4 2.9,-1.2 L 124.78834,40.4 c 1.7,-1.6 1.7,-4.2 0.1,-5.8 z"
           inkscape:connector-curvature="0"
           style="fill:#000000"
           sodipodi:nodetypes="sccsssssscs" />
      </g>
    </g>
  </g>
</svg>
